Coordinates
version=1
nRows=7
nColumns=63
inDegrees=yes

Units are S.I. units (second, meters, Newtons, ...)
If the header above contains a line with 'inDegrees', this indicates whether rotational values are in degrees (yes) or radians (no).

endheader
time	pelvis_tilt	pelvis_list	pelvis_rotation	pelvis_tx	pelvis_ty	pelvis_tz	hip_flexion_r	hip_adduction_r	hip_rotation_r	knee_angle_r	knee_angle_r_beta	ankle_angle_r	subtalar_angle_r	mtp_angle_r	hip_flexion_l	hip_adduction_l	hip_rotation_l	knee_angle_l	knee_angle_l_beta	ankle_angle_l	subtalar_angle_l	mtp_angle_l	L5_S1_Flex_Ext	L5_S1_Lat_Bending	L5_S1_axial_rotation	L4_L5_Flex_Ext	L4_L5_Lat_Bending	L4_L5_axial_rotation	L3_L4_Flex_Ext	L3_L4_Lat_Bending	L3_L4_axial_rotation	L2_L3_Flex_Ext	L2_L3_Lat_Bending	L2_L3_axial_rotation	L1_L2_Flex_Ext	L1_L2_Lat_Bending	L1_L2_axial_rotation	L1_T12_Flex_Ext	L1_T12_Lat_Bending	L1_T12_axial_rotation	Abs_r3	Abs_r2	Abs_r1	Abs_t1	Abs_t2	neck_flexion	neck_bending	neck_rotation	arm_flex_r	arm_add_r	arm_rot_r	elbow_flex_r	pro_sup_r	wrist_flex_r	wrist_dev_r	arm_flex_l	arm_add_l	arm_rot_l	elbow_flex_l	pro_sup_l	wrist_flex_l	wrist_dev_l
      4.35000000	      2.52747180	      8.98714766	     94.18730346	      0.19516495	      0.69310056	      0.97991559	      3.09286236	      3.01985702	      1.54945681	     18.53052902	      0.32341874	     18.17876930	    -10.67484450	      0.00000000	     -0.07558900	     -4.19423826	     -4.80416082	     11.71668687	      0.20449476	     26.65748039	      0.97437856	      0.00000000	     -1.03762971	      1.45837658	      8.69719034	     -1.92698213	      1.93964085	      9.24076473	     -1.70472184	      3.54589681	      9.24076473	     -1.18590699	      3.54589681	      7.61004154	     -0.96354294	      2.97392152	      7.06646715	     -0.59290161	      2.25902532	      6.52289275	     -7.41168523	     16.49744752	     48.37116349	      0.00000000	      0.00000000	     -0.45213594	     -6.26153046	    -34.36700655	    -19.30557233	    -27.57057334	     -2.83602621	    107.31039845	     80.27520701	     10.95912823	      4.89480886	     40.60121469	     30.45235540	    186.00231854	      0.05738746	      0.61278612	    -69.86733589	    -24.47742074
      4.37500000	      2.34132126	      8.33296221	     94.28693592	      0.19540183	      0.69111211	      0.97830326	      3.81594740	      2.85609325	      1.75947418	     18.79439332	      0.32802404	     18.58467942	    -11.14408202	      0.00000000	      0.62314902	     -3.97638276	     -4.78435617	     11.89269229	      0.20756664	     27.06185993	      1.08710294	      0.00000000	     -1.00280218	      1.41384601	      8.44326314	     -1.86230394	      1.88041519	      8.97096709	     -1.64750371	      3.43762518	      8.97096709	     -1.14610262	      3.43762518	      7.38785525	     -0.93120211	      2.88311478	      6.86015130	     -0.57300117	      2.19004746	      6.33244736	     -7.16291572	     15.99370879	     46.95889662	      0.00000000	      0.00000000	      0.04724663	     -6.17199304	    -32.83957115	    -17.62246259	    -27.18046738	     -1.96256928	    107.95296517	     74.00452668	     15.53361712	      7.53117227	     40.54063508	     29.46420341	    184.74391409	      0.05904362	      0.64775192	    -69.85470522	    -24.45650915
      4.40000000	      2.25574686	      8.01091562	     94.30700530	      0.19604336	      0.68971393	      0.97820253	      4.37320823	      2.81940158	      1.89145293	     19.21253664	      0.33532202	     18.87217999	    -11.49312291	      0.00000000	      1.14261854	     -3.91887646	     -4.79618808	     12.25253488	      0.21384708	     27.41376816	      1.06524466	      0.00000000	     -0.99370948	      1.39671207	      8.43654110	     -1.84541787	      1.85762705	      8.96382492	     -1.63256530	      3.39596572	      8.96382492	     -1.13571056	      3.39596572	      7.38197347	     -0.92275862	      2.84817525	      6.85468965	     -0.56780559	      2.16350699	      6.32740583	     -7.09796741	     15.79988624	     46.92151066	      0.00000000	      0.00000000	      0.14267251	     -5.91028794	    -33.00623337	    -17.19706003	    -26.47801074	     -3.95887092	    108.88628273	     68.00280444	     17.08464601	     11.02138713	     41.18656398	     29.42623986	    186.03281427	      0.05904844	      0.65085015	    -69.85254580	    -24.43658532
      4.42500000	      2.38290050	      8.31857131	     94.41059493	      0.19669772	      0.68966570	      0.97956934	      4.29556498	      3.03779400	      1.82526766	     19.48552853	      0.34008663	     18.82396863	    -11.74541600	      0.00000000	      1.04554186	     -4.15574550	     -4.78495267	     12.49244327	      0.21803427	     27.48765727	      1.09384142	      0.00000000	     -1.03720158	      1.44949105	      8.61752908	     -1.92618706	      1.92782310	      9.15612465	     -1.70401848	      3.52429254	      9.15612465	     -1.18541769	      3.52429254	      7.54033795	     -0.96314539	      2.95580215	      7.00174238	     -0.59265698	      2.24526164	      6.46314681	     -7.40862717	     16.39693266	     47.92811149	      0.00000000	      0.00000000	     -0.17033892	     -5.55904658	    -33.82136218	    -18.48299744	    -26.01136538	     -8.88484630	    110.23897244	     64.45709225	     15.86437076	     12.60241051	     42.46004987	     30.13743561	    188.64744142	      0.05799006	      0.67974654	    -69.86252604	    -24.46020398
      4.45000000	      2.36589854	      8.99848439	     94.15213881	      0.19854096	      0.69043755	      0.98202910	      3.92109879	      3.19570146	      2.04726187	     19.81221036	      0.34578830	     18.60605270	    -11.98386922	      0.00000000	      0.54609571	     -4.31551653	     -5.19225554	     12.72775828	      0.22214129	     27.27303787	      0.91287843	      0.00000000	     -1.12186363	      1.51152017	      9.02826328	     -2.08341295	      2.01032182	      9.59252974	     -1.84310976	      3.67511013	      9.59252974	     -1.28217795	      3.67511013	      7.89973037	     -1.04176257	      3.08229192	      7.33546392	     -0.64103288	      2.34134474	      6.77119746	     -8.01335975	     17.09861841	     50.21249190	      0.00000000	      0.00000000	     -1.53626712	     -5.14607910	    -35.71342419	    -21.04318709	    -25.42303618	    -16.38182752	    112.41581891	     60.97238414	     13.08764639	     15.73741407	     44.60776326	     31.14291719	    193.36278865	      0.05538049	      0.66979335	    -69.87912026	    -24.49346986
      4.47500000	      2.44027759	      9.99328183	     94.40130902	      0.20040777	      0.69140922	      0.98501223	      3.13675608	      3.48440503	      1.76052976	     19.95749432	      0.34832399	     18.34828970	    -12.27245239	      0.00000000	     -0.08846511	     -4.66454459	     -5.16454239	     13.14156592	      0.22936359	     27.09770886	      0.87171668	      0.00000000	     -1.22049215	      1.60086068	      9.49478156	     -2.26657596	      2.12914470	     10.08820540	     -2.00514655	      3.89233265	     10.08820540	     -1.39490047	      3.89233265	      8.30793386	     -1.13334901	      3.26447509	      7.71451001	     -0.69738921	      2.47973319	      7.12108617	     -8.71785335	     18.10925613	     52.80712657	      0.00000000	      0.00000000	     -2.36416810	     -4.02481400	    -38.16013468	    -24.56624501	    -24.42911216	    -25.86814436	    115.05461074	     61.73463729	     11.56476326	     15.35442881	     47.58542089	     32.58824916	    198.25025908	      0.05248936	      0.65889765	    -69.89483035	    -24.54054169
      4.50000000	      2.26661729	     10.81672512	     94.45482508	      0.20349719	      0.69195867	      0.98712193	      2.46798024	      3.59472060	      1.90169770	     20.12612210	      0.35126710	     18.33598374	    -12.56223772	      0.00000000	     -0.67126458	     -4.78567240	     -5.22517397	     13.54598232	      0.23642199	     26.83714718	      0.62389509	      0.00000000	     -1.31169886	      1.65142223	     10.03844884	     -2.43595595	      2.19639157	     10.66585190	     -2.15499006	      4.01526802	     10.66585190	     -1.49914063	      4.01526802	      8.78364274	     -1.21804356	      3.36758022	      8.15623969	     -0.74950473	      2.55805304	      7.52883663	     -9.36933379	     18.68121859	     55.83084094	      0.00000000	      0.00000000	     -2.33096951	     -2.60570946	    -40.51171347	    -28.04736740	    -22.61474581	    -35.33623565	    118.50078999	     64.35968731	      9.55453985	     13.16778939	     51.08860858	     33.77227293	    202.53855336	      0.04942739	      0.65708036	    -69.90518710	    -24.58707097
